# xmcd
#
# Track frame offsets: 
#        150
#        14144
#        33791
#        46226
#        65273
#        85828
#        100981
#        115701
#        132223
#        145505
#        161201
#        176793
#        190224
#        207977
#        223787
#        238085
#
# Disc length: 3397 seconds
#
# Revision: 0
# Processed by: cddbd v1.5.2PL0 Copyright (c) Steve Scherf et al.
# Submitted via: ExactAudioCopy v0.99pb3
#
DISCID=e30d4310
DTITLE=Aaron Burton - Recession Blues
DYEAR=2010
DGENRE=Blues
TTITLE0=Workaholic
TTITLE1=You're Wrong
TTITLE2=Funeral Preachin' Blues
TTITLE3=Young Thing
TTITLE4=Hey Bartender (Banjo Funk)
TTITLE5=Jesse Linn
TTITLE6=Recession Blues
TTITLE7=Gonna Party Tonight
TTITLE8=Fading Everyday
TTITLE9=Ain't Gonna Work No More
TTITLE10=The Day Sweet Sammy Died
TTITLE11=Ascap Blues
TTITLE12=Never Stopped Dreamin' Of You
TTITLE13=Dirty Dog
TTITLE14=A.B. Stomp
TTITLE15=Memphis Tennessee
EXTD=
EXTT0=
EXTT1=
EXTT2=
EXTT3=
EXTT4=
EXTT5=
EXTT6=
EXTT7=
EXTT8=
EXTT9=
EXTT10=
EXTT11=
EXTT12=
EXTT13=
EXTT14=
EXTT15=
PLAYORDER=
